<svg width="20" height="20" viewBox="0 0 20 20" fill="none" xmlns="http://www.w3.org/2000/svg">
<path d="M18.1332 9.93801L18.1328 9.93847C16.4755 11.6478 14.0188 12.0211 11.9998 11.0818L11.7876 10.983L11.6751 11.1884L9.59092 14.9933L6.288 15.3464L6.13703 15.3626L6.08174 15.504L4.42173 19.75H1.30474L0.302649 17.6829L9.30401 8.70274L9.42925 8.5778L9.35308 8.41812C8.33913 6.29248 8.67208 3.67072 10.3747 1.9147L10.3751 1.91424C12.5156 -0.304747 15.9919 -0.304747 18.1324 1.91424L18.1332 1.91516C20.2889 4.12713 20.2889 7.72603 18.1332 9.93801ZM15.4305 6.47854C16.4278 6.47854 17.2075 5.64631 17.2075 4.6418C17.2075 3.64789 16.4266 2.8169 15.4305 2.8169C14.4471 2.8169 13.6536 3.64665 13.6536 4.6418C13.6536 5.64755 14.4459 6.47854 15.4305 6.47854Z" stroke="black" stroke-width="0.5"/>
</svg>
