<svg width="22" height="21" viewBox="0 0 22 21" fill="none" xmlns="http://www.w3.org/2000/svg">
<path d="M21 5.74999V5.15155C21 4.01819 21 3.45152 20.8244 2.99448C20.4917 2.12783 19.7187 1.44741 18.734 1.15448C18.2148 1 17.571 1 16.2833 1H5.71669C4.42904 1 3.78523 1 3.26599 1.15448C2.28136 1.44741 1.50831 2.12783 1.1755 2.99448C1 3.45152 1 4.01819 1 5.15155V13.35M21 9.54999V18.4555C21 19.2708 19.9056 19.7034 19.2132 19.1617C18.8064 18.8434 18.1936 18.8434 17.7868 19.1617L17.25 19.5817C16.5371 20.1394 15.4629 20.1394 14.75 19.5817C14.0371 19.0239 12.9629 19.0239 12.25 19.5817C11.5371 20.1394 10.4629 20.1394 9.75 19.5817C9.03711 19.0239 7.96288 19.0239 7.25 19.5817C6.53712 20.1394 5.46288 20.1394 4.75 19.5817L4.21322 19.1617C3.80648 18.8434 3.19352 18.8434 2.78678 19.1617C2.09444 19.7034 1 19.2708 1 18.4555V17.15" stroke="#212121" stroke-linecap="round"/>
<path d="M7.92188 8.86395L9.68015 10.1743L14.0757 6.89844" stroke="#212121" stroke-linecap="round" stroke-linejoin="round"/>
<path d="M6.38281 14.1016H8.04948M16.3828 14.1016H11.3828" stroke="#212121" stroke-linecap="round"/>
</svg>
