<svg width="22" height="20" viewBox="0 0 22 20" fill="none" xmlns="http://www.w3.org/2000/svg">
<path fill-rule="evenodd" clip-rule="evenodd" d="M17.2213 1H4.75169C3.76256 1.00629 2.81561 1.36188 2.11416 1.9904C1.41271 2.61892 1.01269 3.47026 1 4.36162V19H17.2213C18.2179 19 19.1741 18.6453 19.8819 18.0129C20.5896 17.3806 20.9915 16.5219 21 15.6238V4.36162C20.9872 3.46606 20.5835 2.61109 19.8762 1.98189C19.169 1.35269 18.2151 0.999926 17.2213 1ZM15.78 15.0643C15.515 15.0653 15.2557 14.9953 15.0348 14.8634C14.8139 14.7314 14.6415 14.5433 14.5394 14.3229C14.4372 14.1026 14.4099 13.8598 14.461 13.6255C14.512 13.3911 14.6391 13.1757 14.8261 13.0065C15.0131 12.8372 15.2516 12.7219 15.5115 12.6749C15.7713 12.628 16.0407 12.6516 16.2857 12.7427C16.5306 12.8339 16.74 12.9885 16.8874 13.187C17.0347 13.3856 17.1134 13.619 17.1134 13.8578C17.1141 14.016 17.0801 14.1728 17.0134 14.3192C16.9467 14.4655 16.8486 14.5986 16.7248 14.7107C16.6009 14.8228 16.4536 14.9117 16.2915 14.9724C16.1294 15.0331 15.9556 15.0643 15.78 15.0643Z" stroke="black" stroke-linecap="round" stroke-linejoin="round"/>
<path d="M10.3909 10.2008C11.1068 10.2008 11.7933 10.4571 12.2995 10.9132C12.8056 11.3694 13.09 11.9881 13.09 12.6332C13.09 13.2784 12.8056 13.8971 12.2995 14.3532C11.7933 14.8094 11.1068 15.0657 10.3909 15.0657H5.9375V5.33594H10.3909C11.1068 5.33594 11.7933 5.59221 12.2995 6.04838C12.8056 6.50455 13.09 7.12325 13.09 7.76837C13.09 8.41349 12.8056 9.03219 12.2995 9.48836C11.7933 9.94453 11.1068 10.2008 10.3909 10.2008Z" stroke="black" stroke-linecap="round" stroke-linejoin="round"/>
<path d="M10.3909 10.2031H5.9375" stroke="black" stroke-linecap="round" stroke-linejoin="round"/>
</svg>
