<svg width="24" height="18" viewBox="0 0 24 18" fill="none" xmlns="http://www.w3.org/2000/svg">
<path d="M19.3464 9.20884L18.9842 9.64494L19.5165 9.83998C21.2593 10.4786 22.6148 11.7466 23.4842 13.1818C23.6967 13.5326 23.6033 14.0028 23.3196 14.2202L23.3196 14.2203C23.0674 14.4136 22.7133 14.3605 22.5156 14.0343L22.1735 14.2415L22.5156 14.0342C21.4834 12.3301 19.5859 10.85 16.9999 10.85C14.9524 10.85 13.3491 11.7764 12.2647 12.9826C11.1898 14.1783 10.6 15.6766 10.6 16.875C10.6 17.321 10.2883 17.6 9.99995 17.6C9.71159 17.6 9.39997 17.321 9.39997 16.875C9.39997 16.1496 9.54793 15.3662 9.83599 14.5864L9.94133 14.3013L9.69481 14.1234C9.64898 14.0904 9.60465 14.0484 9.56398 13.9964C8.68137 12.8666 7.29837 11.975 5.49999 11.975C3.70154 11.975 2.31853 12.8667 1.43593 13.9965C1.21452 14.2799 0.860945 14.2977 0.621094 14.0606C0.353958 13.7964 0.321461 13.3142 0.56409 13.0035C1.09463 12.3245 1.7636 11.7244 2.55192 11.2852L2.99282 11.0396L2.65296 10.6664C1.88423 9.82244 1.40001 8.63548 1.40001 7.3125C1.40001 4.69188 3.27862 2.65 5.49999 2.65C7.72135 2.65 9.59995 4.69188 9.59995 7.3125C9.59995 8.63548 9.11574 9.82244 8.34702 10.6664L8.00718 11.0396L8.44804 11.2852C9.12643 11.6632 9.71648 12.1602 10.2061 12.7246L10.5409 13.1104L10.8352 12.6929C11.4502 11.8203 12.2476 11.0411 13.2003 10.4604L13.6732 10.1721L13.2509 9.81381C12.1342 8.86625 11.4 7.34876 11.4 5.625C11.4 2.69372 13.5024 0.4 15.9999 0.4C18.4974 0.4 20.5999 2.69372 20.5999 5.625C20.5999 7.01753 20.1205 8.27673 19.3464 9.20884ZM15.9999 1.85C14.0792 1.85 12.5999 3.58572 12.5999 5.625C12.5999 7.66434 14.0792 9.4 15.9999 9.4C17.9207 9.4 19.3999 7.66433 19.3999 5.625C19.3999 3.58573 17.9207 1.85 15.9999 1.85ZM5.49999 4.1C3.85538 4.1 2.6 5.58388 2.6 7.3125C2.6 9.04111 3.85538 10.525 5.49999 10.525C7.14459 10.525 8.39997 9.04111 8.39997 7.3125C8.39997 5.58388 7.14459 4.1 5.49999 4.1Z" stroke="black" stroke-width="0.8"/>
</svg>
