<svg width="24" height="15" viewBox="0 0 24 15" fill="none" xmlns="http://www.w3.org/2000/svg">
<path d="M2.08696 1.675H1.88696V1.875V4.23252V4.38758L2.03712 4.42622C3.54576 4.81438 4.62609 6.05453 4.62609 7.5C4.62609 8.94547 3.54576 10.1856 2.03711 10.5738L1.88696 10.6125V10.7675V13.125V13.325H2.08696H7.30435H7.50435V13.125V1.875V1.675H7.30435H2.08696ZM9.3913 1.675H9.19131V1.875V13.125V13.325H9.3913H21.913H22.113V13.125V10.7675V10.6124L21.9629 10.5738C20.4542 10.1856 19.3738 8.94546 19.3738 7.5C19.3738 6.05453 20.4542 4.81438 21.9629 4.42622L22.113 4.38758V4.23252V1.875V1.675H21.913H9.3913ZM0.2 5.7765V1.02668L1.12013 0.2H22.8799L23.8 1.02668V5.7765H22.9565C21.9303 5.7765 21.0608 6.52856 21.0608 7.5C21.0608 8.47144 21.9303 9.2235 22.9565 9.2235H23.8V13.9733L22.8799 14.8H1.12013L0.2 13.9733V9.2235H1.04348C2.06975 9.2235 2.93913 8.47143 2.93913 7.5C2.93913 6.52857 2.06975 5.7765 1.04348 5.7765H0.2Z" stroke="black" stroke-width="0.4"/>
</svg>
