<svg width="20" height="19" viewBox="0 0 20 19" fill="none" xmlns="http://www.w3.org/2000/svg">
<path d="M0.868056 9.75H4.13194C4.48553 9.75 4.75 10.0192 4.75 10.3247V18.1753C4.75 18.4808 4.48553 18.75 4.13194 18.75H0.868056C0.514474 18.75 0.25 18.4808 0.25 18.1753V10.3247C0.25 10.0192 0.514474 9.75 0.868056 9.75Z" stroke="black" stroke-width="0.5"/>
<path d="M8.36806 0.25H11.6319C11.9855 0.25 12.25 0.519209 12.25 0.824652V18.1753C12.25 18.4808 11.9855 18.75 11.6319 18.75H8.36806C8.01447 18.75 7.75 18.4808 7.75 18.1753V0.824652C7.75 0.519209 8.01447 0.25 8.36806 0.25Z" stroke="black" stroke-width="0.5"/>
<path d="M15.8681 6.58594H19.1319C19.4855 6.58594 19.75 6.85515 19.75 7.16059V18.1779C19.75 18.4834 19.4855 18.7526 19.1319 18.7526H15.8681C15.5145 18.7526 15.25 18.4834 15.25 18.1779V7.16059C15.25 6.85515 15.5145 6.58594 15.8681 6.58594Z" stroke="black" stroke-width="0.5"/>
</svg>
