<svg width="20" height="20" viewBox="0 0 20 20" fill="none" xmlns="http://www.w3.org/2000/svg">
<path d="M2.1074 16.508L2.10722 16.5085C1.71625 17.4491 2.4868 18.4 3.43817 18.4H16.5625C17.5139 18.4 18.2845 17.4491 17.8935 16.5085L17.8933 16.508C16.5854 13.372 13.5187 11.6 9.99985 11.6C6.482 11.6 3.41533 13.372 2.1074 16.508ZM19.5651 17.7223L19.5651 17.7225C19.7742 18.6662 18.9949 19.6 17.9457 19.6H2.05397C1.00607 19.6 0.226358 18.6664 0.43458 17.7224C1.1468 14.5032 3.36682 12.1287 6.30187 11.0483L6.97282 10.8014L6.4113 10.3588C5.10722 9.331 4.27507 7.76012 4.27507 5.99999C4.27507 2.69428 7.20879 0.0427157 10.6895 0.439404L10.6896 0.439411C13.2052 0.725698 15.2839 2.69199 15.6578 5.13056L15.6578 5.13063C15.9816 7.23983 15.1028 9.16507 13.5893 10.3589L13.0283 10.8014L13.6988 11.0483C16.6329 12.1287 18.8539 14.5032 19.5651 17.7223ZM9.99985 1.59999C7.53595 1.59999 5.51667 3.56529 5.51667 5.99999C5.51667 8.43469 7.53595 10.4 9.99985 10.4C12.4648 10.4 14.483 8.43463 14.483 5.99999C14.483 3.56535 12.4648 1.59999 9.99985 1.59999Z" stroke="black" stroke-width="0.8"/>
</svg>
