<svg width="20" height="20" viewBox="0 0 20 20" fill="none" xmlns="http://www.w3.org/2000/svg">
<path d="M2.41368 12.5391C3.16774 12.5391 3.78125 13.2289 3.78125 14.0769C3.78125 14.9248 3.16778 15.6147 2.41368 15.6147C1.65966 15.6147 1.04614 14.9248 1.04614 14.0769C1.04614 13.2289 1.65958 12.5391 2.41368 12.5391ZM2.41368 14.6969C2.7177 14.6969 2.96504 14.4187 2.96504 14.0769C2.96504 13.735 2.7177 13.4569 2.41368 13.4569C2.10969 13.4569 1.86235 13.735 1.86235 14.0769C1.86235 14.4187 2.10969 14.6969 2.41368 14.6969Z" fill="black"/>
<path d="M2.41368 9.28125C3.16774 9.28125 3.78125 9.97108 3.78125 10.819C3.78125 11.667 3.16778 12.3568 2.41368 12.3568C1.65966 12.3568 1.04614 11.667 1.04614 10.819C1.04614 9.97113 1.65958 9.28125 2.41368 9.28125ZM2.41368 11.4391C2.7177 11.4391 2.96504 11.161 2.96504 10.8191C2.96504 10.4772 2.7177 10.1991 2.41368 10.1991C2.10969 10.1991 1.86235 10.4772 1.86235 10.8191C1.86235 11.161 2.10969 11.4391 2.41368 11.4391Z" fill="black"/>
<path d="M2.41368 15.8047C3.16774 15.8047 3.78125 16.4945 3.78125 17.3425C3.78125 18.1904 3.16778 18.8803 2.41368 18.8803C1.65966 18.8803 1.04614 18.1904 1.04614 17.3425C1.04614 16.4945 1.65958 15.8047 2.41368 15.8047ZM2.41368 17.9625C2.7177 17.9625 2.96504 17.6844 2.96504 17.3425C2.96504 17.0007 2.7177 16.7225 2.41368 16.7225C2.10969 16.7225 1.86235 17.0007 1.86235 17.3425C1.86235 17.6844 2.10969 17.9625 2.41368 17.9625Z" fill="black"/>
<path d="M0.406876 19.0781H0.412229C0.637579 19.0781 0.820312 19.2836 0.820312 19.537C0.820312 19.7904 0.637579 19.9959 0.412229 19.9959H0.406876C0.181487 19.9959 -0.00120765 19.7904 -0.00120765 19.537C-0.00120765 19.2836 0.181526 19.0781 0.406876 19.0781Z" fill="black"/>
<path d="M19.5865 19.0781H19.5919C19.8173 19.0781 20 19.2836 20 19.537C20 19.7904 19.8173 19.9959 19.5919 19.9959H19.5865C19.3612 19.9959 19.1784 19.7904 19.1784 19.537C19.1784 19.2836 19.3612 19.0781 19.5865 19.0781Z" fill="black"/>
<path d="M11.4891 6.82831C11.7407 6.82831 11.9453 7.05838 11.9453 7.34126C11.9453 7.62409 11.7407 7.85416 11.4891 7.85416C11.2376 7.85416 11.033 7.62409 11.033 7.34126C11.033 7.05838 11.2377 6.82831 11.4891 6.82831Z" fill="black"/>
<path d="M8.51258 6.82812C8.7641 6.82812 8.96875 7.0582 8.96875 7.34107C8.96875 7.6239 8.7641 7.85398 8.51258 7.85398C8.26106 7.85398 8.05641 7.6239 8.05641 7.34107C8.05641 7.0582 8.26106 6.82812 8.51258 6.82812Z" fill="black"/>
<path d="M9.60684 8.992H10.4044C10.6298 8.992 10.8125 9.19744 10.8125 9.45088C10.8125 9.95118 10.4505 10.3582 10.0056 10.3582C9.56075 10.3582 9.19876 9.95114 9.19876 9.45088C9.19876 9.19744 9.38149 8.992 9.60684 8.992Z" fill="black"/>
<path d="M12.4928 17.1094H12.4982C12.7235 17.1094 12.9062 17.3148 12.9062 17.5683C12.9062 17.8217 12.7235 18.0271 12.4982 18.0271H12.4928C12.2674 18.0271 12.0847 17.8217 12.0847 17.5683C12.0847 17.3149 12.2675 17.1094 12.4928 17.1094Z" fill="black"/>
<path d="M0.412624 8.15858H4.40714C4.63249 8.15858 4.81522 8.36401 4.81522 8.61745V14.1375C4.92448 14.0474 5.04206 13.9716 5.16647 13.9133L7.79286 12.6828C7.88626 12.639 7.94665 12.5372 7.94665 12.4234V11.711L6.87381 11.0214C6.86619 11.0165 6.85877 11.0113 6.85142 11.0059C6.32166 10.6125 5.97338 9.90712 5.91983 9.11903C5.91901 9.10743 5.91865 9.0957 5.91865 9.08406V8.70311C5.38869 8.50927 5.00456 7.94848 5.00456 7.28874C5.00456 6.62899 5.38869 6.06821 5.91865 5.87437V5.11312L5.78323 4.61897C4.61796 3.99757 4.36593 3.26631 4.36593 2.75143C4.36593 1.93689 5.00174 1.20937 6.15623 0.702836C7.18931 0.249623 8.55427 0 9.99961 0C11.4449 0 12.8099 0.249579 13.843 0.702836C14.9975 1.20937 15.6333 1.93689 15.6333 2.75143C15.6333 3.26587 15.3816 3.99673 14.2178 4.61796L14.0806 5.11364V5.87433C14.6105 6.06817 14.9947 6.62891 14.9947 7.28869C14.9947 7.94844 14.6105 8.50922 14.0806 8.70306V9.08402C14.0806 9.09566 14.0802 9.10739 14.0794 9.11898C14.026 9.90387 13.6753 10.6093 13.1412 11.0059C13.134 11.0112 13.1267 11.0163 13.1193 11.0211L12.0526 11.7089V12.4234C12.0526 12.4356 12.0555 12.4645 12.0557 12.467C12.0689 12.5626 12.125 12.6447 12.2063 12.6827L13.5543 13.3143C13.5543 13.3108 13.5542 13.3073 13.5542 13.3038C13.5542 11.3055 15 9.67977 16.7771 9.67977C18.5542 9.67977 20 11.3055 20 13.3038C20 15.3021 18.5542 16.9278 16.7771 16.9278C16.512 16.9278 16.2524 16.8911 16.0002 16.8208V19.0822H18.2642C18.4895 19.0822 18.6723 19.2877 18.6723 19.5411C18.6723 19.7946 18.4895 20 18.2642 20H1.73496C1.50961 20 1.32688 19.7945 1.32688 19.5411C1.32688 19.2877 1.50961 19.0822 1.73496 19.0822H3.99901V15.9795V9.07638H0.820707V18.0727C0.820707 18.3262 0.637974 18.5316 0.412624 18.5316C0.187273 18.5316 0.00453949 18.3262 0.00453949 18.0727V8.61745C0.00453949 8.36401 0.187273 8.15858 0.412624 8.15858ZM14.1964 3.12162C14.3016 3.15602 14.3901 3.23653 14.442 3.34507C14.4481 3.35772 14.4534 3.37068 14.4583 3.38381C14.6897 3.17196 14.8171 2.95348 14.8171 2.75147C14.8171 1.98583 12.9843 0.917846 9.99957 0.917846C7.01482 0.917846 5.18206 1.98578 5.18206 2.75147C5.18206 2.95436 5.31045 3.17389 5.54366 3.38653C5.54889 3.3723 5.55479 3.35838 5.56131 3.34467C5.61319 3.2364 5.70151 3.15611 5.80647 3.12176C5.88205 3.09698 7.68458 2.51533 9.99953 2.51533C12.3144 2.51529 14.1207 3.09689 14.1964 3.12162ZM6.43736 3.88938L6.62803 4.5851H13.372L13.5646 3.88929C12.9203 3.72299 11.5714 3.43309 9.99957 3.43309C8.42732 3.43309 7.08017 3.72317 6.43736 3.88938ZM12.7011 10.2326C13.0127 9.99545 13.2273 9.55072 13.2643 9.06544V8.31657C13.2643 8.06313 13.4471 7.85769 13.6724 7.85769C13.9514 7.85769 14.1784 7.6024 14.1784 7.28869C14.1784 6.97499 13.9514 6.7197 13.6724 6.7197C13.4471 6.7197 13.2643 6.51426 13.2643 6.26082V5.50286H6.73482V6.26082C6.73482 6.51426 6.55209 6.7197 6.32674 6.7197C6.04772 6.7197 5.82072 6.97499 5.82072 7.28869C5.82072 7.6024 6.04776 7.85769 6.32674 7.85769C6.55209 7.85769 6.73482 8.06313 6.73482 8.31657V9.06557C6.77236 9.56091 6.97935 9.9951 7.29123 10.2325L9.48864 11.6451C9.49626 11.65 9.50368 11.6551 9.51102 11.6605C9.817 11.8877 10.1822 11.8877 10.4882 11.6605C10.4954 11.6552 10.5027 11.6502 10.5101 11.6453L12.7011 10.2326ZM8.75665 13.0736C8.75665 13.8439 9.31395 14.4706 9.99899 14.4706C10.684 14.4706 11.2414 13.8439 11.2414 13.0736L11.2386 12.2336L10.9266 12.4348C10.64 12.6441 10.3198 12.7488 9.99961 12.7488C9.67946 12.7488 9.35938 12.6442 9.0729 12.435L8.76001 12.2338L8.75665 13.0736ZM14.5505 12.2775L15.5506 12.5738L14.8123 11.7436C14.7082 11.909 14.62 12.0878 14.5505 12.2775ZM16.777 10.5975C16.2605 10.5975 15.7819 10.7821 15.3894 11.0947L16.2053 12.0121C16.3776 11.9153 16.5717 11.8604 16.777 11.8604C16.9823 11.8604 17.1764 11.9152 17.3486 12.012L18.1645 11.0946C17.772 10.782 17.2934 10.5975 16.777 10.5975ZM18.7416 11.7436L18.0034 12.5738L19.0034 12.2775C18.934 12.0877 18.8458 11.9089 18.7416 11.7436ZM17.1851 15.9704C18.3184 15.7517 19.1838 14.6396 19.1838 13.3038C19.1838 13.2603 19.1827 13.2171 19.1808 13.1741L18.0474 13.5098C17.9779 14.0541 17.6375 14.5009 17.1851 14.672L17.1851 15.9704ZM16.777 13.8294C17.0347 13.8294 17.2443 13.5936 17.2443 13.3038C17.2443 13.014 17.0347 12.7782 16.777 12.7782C16.5193 12.7782 16.3096 13.014 16.3096 13.3038C16.3096 13.5936 16.5193 13.8294 16.777 13.8294ZM15.9972 15.8649C16.1185 15.9115 16.2426 15.9469 16.3689 15.971V14.6719C15.9166 14.5008 15.5762 14.054 15.5067 13.5098L14.3733 13.174C14.3715 13.217 14.3703 13.2602 14.3703 13.3037C14.3703 13.4401 14.3803 13.5757 14.3982 13.7096L14.8327 13.9132C15.4906 14.2215 15.9583 15.0132 15.9972 15.8649ZM15.1839 19.0823V19.0822V18.0268H13.8135C13.5882 18.0268 13.4055 17.8213 13.4055 17.5679C13.4055 17.3145 13.5882 17.109 13.8135 17.109H15.1839V15.9795C15.1839 15.4622 14.898 14.9382 14.5187 14.7605L13.5582 14.3105L10.7378 19.0823H15.1839ZM12.7907 13.9508L12.0066 13.5835C11.7994 14.6153 10.9782 15.3884 9.99899 15.3884C9.01985 15.3884 8.1988 14.6155 7.9915 13.5839L7.21127 13.9494L10.0015 18.6698L12.7907 13.9508ZM9.2652 19.0822L6.44377 14.3091L5.48041 14.7605C5.10116 14.9382 4.81522 15.4622 4.81522 15.9794V19.0822H9.2652Z" fill="black"/>
</svg>
