<svg width="20" height="18" viewBox="0 0 20 18" fill="none" xmlns="http://www.w3.org/2000/svg">
<path d="M15.4443 2.07729C16.3211 2.07729 16.869 2.78606 17.1131 3.72855L17.1131 3.7287L17.9578 6.9988L18.0062 7.18627H18.1999H19.75V8.16008H19.1976H18.9476V8.41008V8.41165V14.9615V16.5184V17.75H17.1185V16.5184V16.2684H16.8685H3.13151H2.88151V16.5184V17.75H1.05241V16.5184V14.9615V8.41165V8.16165H0.802409H0.25V7.18784H1.95964H2.13972L2.19676 7.01703L3.28884 3.74691C3.44545 3.27881 3.64687 2.8566 3.91937 2.55445C4.18484 2.2601 4.51729 2.07886 4.96257 2.07886H7.36816H7.61816V1.82886V0.532031C7.61816 0.418372 7.61343 0.322772 7.61002 0.253868C7.60995 0.252563 7.60989 0.251268 7.60982 0.249982C7.62798 0.250039 7.64813 0.250203 7.67078 0.250389C7.70939 0.250707 7.75526 0.251085 7.81087 0.251085H12.2591C12.3001 0.251085 12.3382 0.250757 12.371 0.250475C12.3763 0.250428 12.3815 0.250383 12.3866 0.250341C12.3842 0.303218 12.3818 0.369631 12.3818 0.444323V1.82729V2.07729H12.6318H15.4443ZM6.51204 13.3098H6.26204V13.5598V15.1213V15.3713H6.51204H13.3919H13.6419V15.1213V13.5598V13.3098H13.3919H6.51204ZM1.58962 9.67316L1.33203 9.66533V9.92304V12.1565V12.4065H1.58203H4.68262H4.98365L4.92836 12.1105C4.78055 11.3194 4.41252 10.7135 3.83055 10.3033C3.25509 9.89769 2.49492 9.70066 1.58962 9.67316ZM18.4466 9.92304V9.66533L18.189 9.67316C17.2837 9.70066 16.5236 9.89769 15.9481 10.3033C15.3661 10.7135 14.9981 11.3194 14.8503 12.1105L14.795 12.4065H15.096H18.1966H18.4466V12.1565V9.92304ZM2.55903 6.8573L2.44949 7.18627H2.79622H17.2038H17.5163L17.4477 6.88141L16.8308 4.13897L16.8308 4.13892C16.6499 3.33524 16.1015 2.54208 15.1302 2.54208H5.16602C4.68516 2.54208 4.31777 2.74653 4.04392 3.05002C3.77709 3.34574 3.59966 3.73365 3.47223 4.11451L3.47211 4.11486L2.55903 6.8573Z" stroke="black" stroke-width="0.5"/>
</svg>
