<svg width="20" height="15" viewBox="0 0 20 15" fill="none" xmlns="http://www.w3.org/2000/svg">
<path d="M2.25 1.875C2.25 1.37772 2.43437 0.900805 2.76256 0.549175C3.09075 0.197544 3.53587 0 4 0C4.46413 0 4.90925 0.197544 5.23744 0.549175C5.56563 0.900805 5.75 1.37772 5.75 1.875C5.75 2.37228 5.56563 2.84919 5.23744 3.20082C4.90925 3.55246 4.46413 3.75 4 3.75C3.53587 3.75 3.09075 3.55246 2.76256 3.20082C2.43437 2.84919 2.25 2.37228 2.25 1.875ZM2 7.15513C1.6875 7.53013 1.5 8.02902 1.5 8.57143C1.5 9.11384 1.6875 9.61272 2 9.98772V7.15513ZM6.5125 5.50446C5.58437 6.38504 5 7.67411 5 9.10714C5 10.2556 5.375 11.3103 6 12.1373V12.8571C6 13.4498 5.55312 13.9286 5 13.9286H3C2.44688 13.9286 2 13.4498 2 12.8571V11.9598C0.81875 11.3571 0 10.0681 0 8.57143C0 6.49888 1.56562 4.82143 3.5 4.82143H4.5C5.25 4.82143 5.94375 5.07254 6.5125 5.50112V5.50446ZM14 12.8571V12.1373C14.625 11.3103 15 10.2556 15 9.10714C15 7.67411 14.4156 6.38504 13.4875 5.50112C14.0563 5.07254 14.75 4.82143 15.5 4.82143H16.5C18.4344 4.82143 20 6.49888 20 8.57143C20 10.0681 19.1812 11.3571 18 11.9598V12.8571C18 13.4498 17.5531 13.9286 17 13.9286H15C14.4469 13.9286 14 13.4498 14 12.8571ZM14.25 1.875C14.25 1.37772 14.4344 0.900805 14.7626 0.549175C15.0908 0.197544 15.5359 0 16 0C16.4641 0 16.9092 0.197544 17.2374 0.549175C17.5656 0.900805 17.75 1.37772 17.75 1.875C17.75 2.37228 17.5656 2.84919 17.2374 3.20082C16.9092 3.55246 16.4641 3.75 16 3.75C15.5359 3.75 15.0908 3.55246 14.7626 3.20082C14.4344 2.84919 14.25 2.37228 14.25 1.875ZM18 7.15513V9.99107C18.3125 9.61272 18.5 9.11719 18.5 8.57478C18.5 8.03237 18.3125 7.53348 18 7.15848V7.15513ZM10 0C10.5304 0 11.0391 0.225765 11.4142 0.627628C11.7893 1.02949 12 1.57454 12 2.14286C12 2.71118 11.7893 3.25622 11.4142 3.65809C11.0391 4.05995 10.5304 4.28571 10 4.28571C9.46957 4.28571 8.96086 4.05995 8.58579 3.65809C8.21071 3.25622 8 2.71118 8 2.14286C8 1.57454 8.21071 1.02949 8.58579 0.627628C8.96086 0.225765 9.46957 0 10 0ZM7.5 9.10714C7.5 9.64955 7.6875 10.1451 8 10.5234V7.69085C7.6875 8.0692 7.5 8.56473 7.5 9.10714ZM12 7.69085V10.5268C12.3125 10.1484 12.5 9.6529 12.5 9.11049C12.5 8.56808 12.3125 8.0692 12 7.6942V7.69085ZM14 9.10714C14 10.6038 13.1812 11.8929 12 12.4955V13.9286C12 14.5212 11.5531 15 11 15H9C8.44687 15 8 14.5212 8 13.9286V12.4955C6.81875 11.8929 6 10.6038 6 9.10714C6 7.0346 7.56563 5.35714 9.5 5.35714H10.5C12.4344 5.35714 14 7.0346 14 9.10714Z" fill="black"/>
</svg>
