<svg width="22" height="20" viewBox="0 0 22 20" fill="none" xmlns="http://www.w3.org/2000/svg">
<path d="M7.66667 11.2857H14.3333M11 7.42857V15.1429M11.0697 2.36638L10.9303 2.20505C10.546 1.76031 10.3538 1.53794 10.1296 1.37893C9.93067 1.23793 9.71389 1.13404 9.48722 1.07105C9.23145 1 8.95967 1 8.41613 1H4.55556C3.311 1 2.68871 1 2.21336 1.28027C1.79521 1.5268 1.45526 1.92017 1.24221 2.40403C1 2.95408 1 3.67414 1 5.11429V14.8857C1 16.3258 1 17.046 1.24221 17.596C1.45526 18.0798 1.79521 18.4732 2.21336 18.7197C2.68871 19 3.31099 19 4.55556 19H17.4444C18.689 19 19.3113 19 19.7867 18.7197C20.2048 18.4732 20.5448 18.0798 20.7578 17.596C21 17.046 21 16.3258 21 14.8857V7.68571C21 6.24559 21 5.52551 20.7578 4.97545C20.5448 4.4916 20.2048 4.09822 19.7867 3.8517C19.3113 3.57143 18.689 3.57143 17.4444 3.57143H13.5839C13.0403 3.57143 12.7686 3.57143 12.5128 3.50038C12.2861 3.43739 12.0693 3.33349 11.8704 3.1925C11.6462 3.03349 11.454 2.81112 11.0697 2.36638Z" stroke="black" stroke-width="0.8" stroke-linecap="round" stroke-linejoin="round"/>
</svg>
