<svg width="8" height="8" viewBox="0 0 8 8" fill="none" xmlns="http://www.w3.org/2000/svg">
<path d="M6.50032 3.24952C6.50032 3.96661 6.26749 4.62901 5.87529 5.16643L7.85351 7.14583C8.04883 7.34111 8.04883 7.65825 7.85351 7.85354C7.65819 8.04882 7.34098 8.04882 7.14566 7.85354L5.16744 5.87414C4.62991 6.26783 3.96738 6.49905 3.25016 6.49905C1.45476 6.49905 0 5.04457 0 3.24952C0 1.45447 1.45476 0 3.25016 0C5.04556 0 6.50032 1.45447 6.50032 3.24952ZM3.25016 5.49919C3.54565 5.49919 3.83824 5.441 4.11124 5.32795C4.38423 5.21489 4.63228 5.04918 4.84123 4.84028C5.05017 4.63138 5.21591 4.38338 5.32899 4.11044C5.44207 3.83749 5.50027 3.54495 5.50027 3.24952C5.50027 2.95409 5.44207 2.66155 5.32899 2.38861C5.21591 2.11567 5.05017 1.86767 4.84123 1.65877C4.63228 1.44987 4.38423 1.28416 4.11124 1.1711C3.83824 1.05804 3.54565 0.999853 3.25016 0.999853C2.95467 0.999853 2.66208 1.05804 2.38908 1.1711C2.11608 1.28416 1.86803 1.44987 1.65909 1.65877C1.45015 1.86767 1.28441 2.11567 1.17133 2.38861C1.05825 2.66155 1.00005 2.95409 1.00005 3.24952C1.00005 3.54495 1.05825 3.83749 1.17133 4.11044C1.28441 4.38338 1.45015 4.63138 1.65909 4.84028C1.86803 5.04918 2.11608 5.21489 2.38908 5.32795C2.66208 5.441 2.95467 5.49919 3.25016 5.49919Z" fill="#8B8B8B"/>
</svg>
